<?xml version="1.0" standalone="no"?>
<svg xmlns="http://www.w3.org/2000/svg" viewBox="0 0 168 75" width="168" height="75"><g fill="#8aaba2" color="#8aaba2" transform="translate(61.616 0) scale(0.44) "><svg width="100.0" height="100.0" x="0.0" y="0.0" viewBox="0 0 100 100"><path d="M39,12l-4.4,4.3l31.2,15.5L51.4,47.3l-12-2.1l-3,3l11.6,6.4l6.3,11.7l3-3l-1.9-12l15.9-14l14.9,31.2l4.4-4.3l-6.3-38.9  c3-2.8,7.2-7,10.1-9.8c3.6-3.5,3.8-6.5,2-8.3c-1.8-1.8-4.9-1.8-8.5,1.8c-2.9,2.8-7.1,7.1-9.9,10l-38.4-7.6 M39.4,57.4  c-1.9,0.8-4.3,1.7-5.3,2.1l-1.7,0.7l-0.1-0.5c-0.2-0.7-0.7-1.8-1.1-2.4c-0.8-1.2-1.6-1.9-2.9-2.5c-3.7-1.9-8.3-0.4-10.1,3.3  l-0.3,0.6l-1-0.1c-0.5,0-1.2-0.1-1.5-0.1c-0.9,0.1-2.3,0.4-3.3,0.9c-1,0.5-1.6,1-2.5,1.8c-1.5,1.5-2.3,3.8-2.3,6l0,0.8l-0.6,0.3  c-1.9,1.1-3.3,2.8-3.9,4.8c-1.1,3.5,0.2,7.4,3.3,9.6c0.9,0.7,2.9,1.4,4,1.5c0.4,0,0.8,0.1,0.9,0.1c0.1,0,0.1,0.2,0.1,0.6  c-0.1,1.4,0.3,2.9,0.9,4.2c1.7,3.4,5.4,5.2,9.3,4.6c0.5-0.1,1.2-0.3,2-0.7c1.1-0.5,1.3-0.6,2.1-1.4c0.9-0.8,1.4-1.4,1.8-2.3l0.2-0.4  l0.4,0.1c0.8,0.2,2.1,0.3,2.9,0.2c0.4,0,0.8-0.1,0.8,0c0.1,0,0.2,0.2,0.4,0.4c0.9,1.3,2,2.1,3.6,2.7c1,0.4,1.3,0.4,2,0.5  c3.5,0.2,6.4-1.6,7.6-4.8c0.9-2.3,0.6-4.6-0.7-6.7c-0.2-0.3-0.2-0.3,0-0.6c0.4-0.5,1-2,1.2-2.8c0.4-2,0-4.1-1.3-5.7  c-0.6-0.8-1.2-1.4-1.9-1.9l-0.4-0.3l0.1-0.5c0.1-0.3,0.8-2.9,1.7-5.8c0.9-2.9,1.6-5.5,1.7-5.7c0.1-0.4-0.1-0.6-0.3-0.3  c-0.1,0.2-5.8,12.7-5.9,12.9c0,0,0.3,0.2,0.6,0.4c1.1,0.6,1.9,1.2,2.3,1.7c0.6,0.6,1.1,1.8,1.4,2.9c0.4,1.7,0.4,2.6-0.5,4.5  c-0.6,1.3-1,1.9-1.6,2.4c-0.8,0.7-0.6,0.9,0.3,0.4c0.3-0.2,0.6-0.3,0.7-0.3c0,0,0.2,0.3,0.3,0.6c1.8,3.9-1.2,8.2-5.5,7.9  c-0.8,0-0.9-0.1-2.1-0.6c-1.1-0.5-1.4-0.6-1.9-1.1c-1.1-0.9-2.3-2.6-2.6-3.5c-0.1-0.5-0.4-0.7-0.5-0.4c0,0.1,0,0.6,0.1,1  c0.1,0.4,0.1,0.8,0.1,0.9c-0.2,0.2-1.8,0.1-3-0.2s-1.6-0.3-3-0.9c-1.4-0.6-1.6-0.6-1.7-0.5c-0.1,0.2,1,1.3,1.9,2l0.7,0.5l-0.2,0.3  c-0.4,0.6-1.1,1.5-1.7,2c-0.7,0.6-2.1,1.2-3.1,1.4c-1.5,0.3-3.1,0-4.3-0.6c-1.4-0.8-2.2-1.6-3.1-3.3c-1.4-2.5-1.6-3.7-1.1-5.9  c0.2-1.1,0.2-1.4,0-1.2c-0.1,0.1-0.3,0.4-0.4,0.8l-0.3,0.7l-0.7,0c-1.1,0-2.1-0.3-2.9-0.7C6.5,81,5.7,80.1,5,78.6  c-0.4-0.9-0.5-1.3-0.6-2c0-0.5,0-1.2,0-1.6c0.1-0.9,0.6-2.2,1.1-2.9c0.4-0.6,1.5-1.6,2-1.9L7.8,70l0.4,0.7c0.5,1,1.5,2.3,1.8,2.4  c0.2,0.1,0.2-0.3-0.2-0.8c-0.6-1-1-2.4-0.9-3.9c0.1-1.3,0.5-3.2,0.9-4.2c1.2-2.7,4.3-4.3,7.3-3.8c0.3,0,0.3,0.1,0.3,0.6  c0,1,0.1,2.1,0.5,3.1c0.3,0.8,0.7,0.7,0.4-0.1c-0.2-0.7-0.2-1.7-0.1-2.5c0.4-1.4,1.1-2.7,2.5-4c0.7-0.7,1-0.9,1.8-1.2  c1.6-0.7,3-0.7,4.6,0c1.1,0.5,1.7,1,2.4,1.9c0.7,0.9,0.9,1.7,1.1,3.5c0.1,0.8,0.2,1.5,0.2,1.5c0,0,2.8-1.6,6.2-3.5  c4.6-2.6,6.1-3.5,6-3.6C43.1,56,43,56,43,56C43,55.9,41.4,56.6,39.4,57.4z"></path></svg></g><path fill="#6369a2" fill-rule="nonzero" d="M6.67 2.45Q4.20 2.45 2.99 3.56Q1.78 4.68 1.78 6.79L1.78 6.79L1.78 9.14L9.79 9.14L9.79 10.68L1.78 10.68L1.78 17.81L0 17.81L0 6.77Q0 4.01 1.73 2.44Q3.46 0.86 6.60 0.86L6.60 0.86Q9.65 0.86 11.50 2.18L11.50 2.18L10.85 3.65Q9.22 2.45 6.67 2.45L6.67 2.45ZM17.78 17.93Q16.08 17.93 15.16 16.97Q14.23 16.01 14.23 14.30L14.23 14.30L14.23 0L15.94 0L15.94 14.16Q15.94 15.29 16.46 15.88Q16.99 16.46 18.05 16.46L18.05 16.46Q18.72 16.46 19.20 16.25L19.20 16.25L19.32 17.66Q18.58 17.93 17.78 17.93L17.78 17.93ZM21.65 17.81L21.65 5.18L23.35 5.18L23.35 17.81L21.65 17.81ZM22.51 2.42Q21.98 2.42 21.62 2.06Q21.26 1.70 21.26 1.20L21.26 1.20Q21.26 0.72 21.62 0.36Q21.98 0 22.51 0L22.51 0Q23.04 0 23.40 0.35Q23.76 0.70 23.76 1.18L23.76 1.18Q23.76 1.70 23.40 2.06Q23.04 2.42 22.51 2.42L22.51 2.42ZM38.16 5.18L39.79 5.18L39.79 16.27Q39.79 19.49 38.22 21.04Q36.65 22.58 33.48 22.58L33.48 22.58Q31.73 22.58 30.16 22.07Q28.58 21.55 27.60 20.64L27.60 20.64L28.46 19.34Q29.38 20.16 30.68 20.62Q31.99 21.07 33.43 21.07L33.43 21.07Q35.83 21.07 36.96 19.96Q38.09 18.84 38.09 16.49L38.09 16.49L38.09 14.88Q37.30 16.08 36.01 16.70Q34.73 17.33 33.17 17.33L33.17 17.33Q31.39 17.33 29.94 16.55Q28.49 15.77 27.66 14.36Q26.83 12.96 26.83 11.18L26.83 11.18Q26.83 9.41 27.66 8.02Q28.49 6.62 29.93 5.86Q31.37 5.09 33.17 5.09L33.17 5.09Q34.78 5.09 36.07 5.74Q37.37 6.38 38.16 7.61L38.16 7.61L38.16 5.18ZM33.34 15.82Q34.70 15.82 35.81 15.23Q36.91 14.64 37.52 13.58Q38.14 12.53 38.14 11.18L38.14 11.18Q38.14 9.84 37.52 8.80Q36.91 7.75 35.82 7.16Q34.73 6.58 33.34 6.58L33.34 6.58Q31.97 6.58 30.88 7.15Q29.78 7.73 29.17 8.78Q28.56 9.84 28.56 11.18L28.56 11.18Q28.56 12.53 29.17 13.58Q29.78 14.64 30.88 15.23Q31.97 15.82 33.34 15.82L33.34 15.82ZM51.00 5.09Q53.38 5.09 54.78 6.47Q56.18 7.85 56.18 10.49L56.18 10.49L56.18 17.81L54.48 17.81L54.48 10.66Q54.48 8.69 53.50 7.66Q52.51 6.62 50.69 6.62L50.69 6.62Q48.65 6.62 47.46 7.84Q46.27 9.05 46.27 11.18L46.27 11.18L46.27 17.81L44.57 17.81L44.57 0L46.27 0L46.27 7.39Q46.97 6.29 48.19 5.69Q49.42 5.09 51.00 5.09L51.00 5.09ZM66.43 15.82L67.03 17.04Q66.55 17.47 65.86 17.70Q65.16 17.93 64.39 17.93L64.39 17.93Q62.62 17.93 61.66 16.97Q60.70 16.01 60.70 14.26L60.70 14.26L60.70 2.42L62.40 2.42L62.40 5.18L66.22 5.18L66.22 6.62L62.40 6.62L62.40 14.16Q62.40 15.29 62.95 15.88Q63.50 16.46 64.56 16.46L64.56 16.46Q65.71 16.46 66.43 15.82L66.43 15.82ZM68.95 12.05L68.95 10.56L75.24 10.56L75.24 12.05L68.95 12.05ZM82.44 17.93Q80.90 17.93 79.50 17.48Q78.10 17.04 77.30 16.37L77.30 16.37L78.07 15.02Q78.86 15.65 80.06 16.04Q81.26 16.44 82.56 16.44L82.56 16.44Q84.29 16.44 85.12 15.90Q85.94 15.36 85.94 14.38L85.94 14.38Q85.94 13.68 85.49 13.28Q85.03 12.89 84.34 12.68Q83.64 12.48 82.49 12.29L82.49 12.29Q80.95 12 80.02 11.70Q79.08 11.40 78.42 10.68Q77.76 9.96 77.76 8.69L77.76 8.69Q77.76 7.10 79.08 6.10Q80.40 5.09 82.75 5.09L82.75 5.09Q83.98 5.09 85.20 5.41Q86.42 5.74 87.22 6.26L87.22 6.26L86.47 7.63Q84.91 6.55 82.75 6.55L82.75 6.55Q81.12 6.55 80.29 7.13Q79.46 7.70 79.46 8.64L79.46 8.64Q79.46 9.36 79.93 9.79Q80.40 10.22 81.10 10.43Q81.79 10.63 83.02 10.85L83.02 10.85Q84.53 11.14 85.44 11.42Q86.35 11.71 87 12.41Q87.65 13.10 87.65 14.33L87.65 14.33Q87.65 15.98 86.27 16.96Q84.89 17.93 82.44 17.93L82.44 17.93ZM97.22 5.09Q99.60 5.09 101.00 6.47Q102.41 7.85 102.41 10.49L102.41 10.49L102.41 17.81L100.70 17.81L100.70 10.66Q100.70 8.69 99.72 7.66Q98.74 6.62 96.91 6.62L96.91 6.62Q94.87 6.62 93.68 7.84Q92.50 9.05 92.50 11.18L92.50 11.18L92.50 17.81L90.79 17.81L90.79 0L92.50 0L92.50 7.39Q93.19 6.29 94.42 5.69Q95.64 5.09 97.22 5.09L97.22 5.09ZM116.90 5.18L118.61 5.18L118.61 17.81L116.98 17.81L116.98 15.31Q116.21 16.58 114.95 17.26Q113.69 17.93 112.10 17.93L112.10 17.93Q110.33 17.93 108.89 17.11Q107.45 16.30 106.63 14.83Q105.82 13.37 105.82 11.50L105.82 11.50Q105.82 9.62 106.63 8.16Q107.45 6.70 108.89 5.89Q110.33 5.09 112.10 5.09L112.10 5.09Q113.64 5.09 114.88 5.72Q116.11 6.36 116.90 7.58L116.90 7.58L116.90 5.18ZM112.25 16.42Q113.57 16.42 114.64 15.80Q115.70 15.19 116.32 14.06Q116.93 12.94 116.93 11.50L116.93 11.50Q116.93 10.06 116.32 8.93Q115.70 7.80 114.64 7.19Q113.57 6.58 112.25 6.58L112.25 6.58Q110.90 6.58 109.84 7.19Q108.77 7.80 108.16 8.93Q107.54 10.06 107.54 11.50L107.54 11.50Q107.54 12.94 108.16 14.06Q108.77 15.19 109.84 15.80Q110.90 16.42 112.25 16.42L112.25 16.42ZM124.99 7.66Q125.59 6.38 126.78 5.74Q127.97 5.09 129.72 5.09L129.72 5.09L129.72 6.74L129.31 6.72Q127.32 6.72 126.19 7.94Q125.06 9.17 125.06 11.38L125.06 11.38L125.06 17.81L123.36 17.81L123.36 5.18L124.99 5.18L124.99 7.66ZM132.79 17.81L132.79 5.18L134.50 5.18L134.50 17.81L132.79 17.81ZM133.66 2.42Q133.13 2.42 132.77 2.06Q132.41 1.70 132.41 1.20L132.41 1.20Q132.41 0.72 132.77 0.36Q133.13 0 133.66 0L133.66 0Q134.18 0 134.54 0.35Q134.90 0.70 134.90 1.18L134.90 1.18Q134.90 1.70 134.54 2.06Q134.18 2.42 133.66 2.42L133.66 2.42ZM145.68 5.09Q148.06 5.09 149.46 6.47Q150.86 7.85 150.86 10.49L150.86 10.49L150.86 17.81L149.16 17.81L149.16 10.66Q149.16 8.69 148.18 7.66Q147.19 6.62 145.37 6.62L145.37 6.62Q143.33 6.62 142.14 7.84Q140.95 9.05 140.95 11.18L140.95 11.18L140.95 17.81L139.25 17.81L139.25 5.18L140.88 5.18L140.88 7.51Q141.58 6.36 142.81 5.72Q144.05 5.09 145.68 5.09L145.68 5.09ZM165.60 5.18L167.23 5.18L167.23 16.27Q167.23 19.49 165.66 21.04Q164.09 22.58 160.92 22.58L160.92 22.58Q159.17 22.58 157.60 22.07Q156.02 21.55 155.04 20.64L155.04 20.64L155.90 19.34Q156.82 20.16 158.12 20.62Q159.43 21.07 160.87 21.07L160.87 21.07Q163.27 21.07 164.40 19.96Q165.53 18.84 165.53 16.49L165.53 16.49L165.53 14.88Q164.74 16.08 163.45 16.70Q162.17 17.33 160.61 17.33L160.61 17.33Q158.83 17.33 157.38 16.55Q155.93 15.77 155.10 14.36Q154.27 12.96 154.27 11.18L154.27 11.18Q154.27 9.41 155.10 8.02Q155.93 6.62 157.37 5.86Q158.81 5.09 160.61 5.09L160.61 5.09Q162.22 5.09 163.51 5.74Q164.81 6.38 165.60 7.61L165.60 7.61L165.60 5.18ZM160.78 15.82Q162.14 15.82 163.25 15.23Q164.35 14.64 164.96 13.58Q165.58 12.53 165.58 11.18L165.58 11.18Q165.58 9.84 164.96 8.80Q164.35 7.75 163.26 7.16Q162.17 6.58 160.78 6.58L160.78 6.58Q159.41 6.58 158.32 7.15Q157.22 7.73 156.61 8.78Q156 9.84 156 11.18L156 11.18Q156 12.53 156.61 13.58Q157.22 14.64 158.32 15.23Q159.41 15.82 160.78 15.82L160.78 15.82Z" transform="translate(0, 52)"></path></svg>